<mxfile host="www.draw.io" modified="2019-10-23T00:39:57.676Z" agent="Mozilla/5.0 (Windows NT 10.0; Win64; x64) AppleWebKit/537.36 (KHTML, like Gecko) Chrome/72.0.3626.121 Safari/537.36" etag="CBs1j96g4B1CjH2SqbgY" version="12.1.3" type="github" pages="1">
  <diagram id="w4r7GopVXuB-QNRvBzYS" name="Page-1">
    <mxGraphModel dx="1822" dy="1162" grid="0" gridSize="10" guides="1" tooltips="1" connect="1" arrows="1" fold="1" page="0" pageScale="1" pageWidth="850" pageHeight="1100" math="0" shadow="0">
      <root>
        <mxCell id="0"/>
        <mxCell id="1" parent="0"/>
        <mxCell id="LOOztYkBVy08BmpiCakV-54" value="&lt;p style=&quot;margin: 0px ; margin-top: 4px ; text-align: center&quot;&gt;&lt;i&gt;&amp;lt;&amp;lt;Interface&amp;gt;&amp;gt;&lt;/i&gt;&lt;br&gt;&lt;b&gt;DaoFactory&lt;/b&gt;&lt;/p&gt;&lt;hr size=&quot;1&quot;&gt;&lt;p style=&quot;margin: 0px ; margin-left: 4px&quot;&gt;&lt;/p&gt;&lt;p style=&quot;margin: 0px ; margin-left: 4px&quot;&gt;+ createUserDao(): UserDao&lt;br&gt;+ createOrderDao(): OrderDao&lt;/p&gt;" style="verticalAlign=top;align=left;overflow=fill;fontSize=12;fontFamily=Helvetica;html=1;fillColor=#dae8fc;strokeColor=#6c8ebf;" parent="1" vertex="1">
          <mxGeometry x="7" y="19" width="174" height="76" as="geometry"/>
        </mxCell>
        <mxCell id="LOOztYkBVy08BmpiCakV-55" value="&lt;p style=&quot;margin: 0px ; margin-top: 4px ; text-align: center&quot;&gt;&lt;b&gt;SqlServerDaoFactory&lt;/b&gt;&lt;/p&gt;&lt;hr size=&quot;1&quot;&gt;&lt;p style=&quot;margin: 0px ; margin-left: 4px&quot;&gt;&lt;/p&gt;&lt;p style=&quot;margin: 0px ; margin-left: 4px&quot;&gt;+ createUserDao(): UserDao&lt;br&gt;+ createOrderDao(): OrderDao&lt;br&gt;&lt;/p&gt;" style="verticalAlign=top;align=left;overflow=fill;fontSize=12;fontFamily=Helvetica;html=1;fillColor=#dae8fc;strokeColor=#6c8ebf;" parent="1" vertex="1">
          <mxGeometry x="-89" y="182" width="174" height="68" as="geometry"/>
        </mxCell>
        <mxCell id="LOOztYkBVy08BmpiCakV-56" value="&lt;p style=&quot;margin: 0px ; margin-top: 4px ; text-align: center&quot;&gt;&lt;b&gt;MysqlDaoFactory&lt;/b&gt;&lt;/p&gt;&lt;hr size=&quot;1&quot;&gt;&lt;p style=&quot;margin: 0px ; margin-left: 4px&quot;&gt;&lt;/p&gt;&lt;p style=&quot;margin: 0px ; margin-left: 4px&quot;&gt;+ createUserDao(): UserDao&lt;br&gt;+ createOrderDao(): OrderDao&lt;br&gt;&lt;/p&gt;" style="verticalAlign=top;align=left;overflow=fill;fontSize=12;fontFamily=Helvetica;html=1;fillColor=#dae8fc;strokeColor=#6c8ebf;" parent="1" vertex="1">
          <mxGeometry x="89" y="183" width="177" height="66" as="geometry"/>
        </mxCell>
        <mxCell id="LOOztYkBVy08BmpiCakV-57" value="&lt;p style=&quot;margin: 0px ; margin-top: 4px ; text-align: center&quot;&gt;&lt;i&gt;&amp;lt;&amp;lt;Interface&amp;gt;&amp;gt;&lt;/i&gt;&lt;br&gt;&lt;b&gt;OrderDao&lt;/b&gt;&lt;/p&gt;&lt;hr size=&quot;1&quot;&gt;&lt;p style=&quot;margin: 0px ; margin-left: 4px&quot;&gt;&lt;/p&gt;&lt;p style=&quot;margin: 0px ; margin-left: 4px&quot;&gt;+ saveOrder(Order): void&lt;br&gt;&lt;br&gt;&lt;/p&gt;" style="verticalAlign=top;align=left;overflow=fill;fontSize=12;fontFamily=Helvetica;html=1;fillColor=#dae8fc;strokeColor=#6c8ebf;" parent="1" vertex="1">
          <mxGeometry x="457" y="154" width="150" height="60" as="geometry"/>
        </mxCell>
        <mxCell id="LOOztYkBVy08BmpiCakV-58" value="&lt;p style=&quot;margin: 0px ; margin-top: 4px ; text-align: center&quot;&gt;&lt;b&gt;SqlServerOrderDao&lt;/b&gt;&lt;/p&gt;&lt;hr size=&quot;1&quot;&gt;&lt;p style=&quot;margin: 0px ; margin-left: 4px&quot;&gt;&lt;/p&gt;&lt;p style=&quot;margin: 0px ; margin-left: 4px&quot;&gt;+ saveOrder(Order): void&lt;br&gt;&lt;br&gt;&lt;/p&gt;" style="verticalAlign=top;align=left;overflow=fill;fontSize=12;fontFamily=Helvetica;html=1;fillColor=#dae8fc;strokeColor=#6c8ebf;" parent="1" vertex="1">
          <mxGeometry x="372" y="285" width="150" height="60" as="geometry"/>
        </mxCell>
        <mxCell id="LOOztYkBVy08BmpiCakV-59" value="&lt;p style=&quot;margin: 0px ; margin-top: 4px ; text-align: center&quot;&gt;&lt;b&gt;MysqlOrderDao&lt;/b&gt;&lt;/p&gt;&lt;hr size=&quot;1&quot;&gt;&lt;p style=&quot;margin: 0px ; margin-left: 4px&quot;&gt;&lt;/p&gt;&lt;p style=&quot;margin: 0px ; margin-left: 4px&quot;&gt;+ saveOrder(Order): void&lt;br&gt;&lt;br&gt;&lt;/p&gt;" style="verticalAlign=top;align=left;overflow=fill;fontSize=12;fontFamily=Helvetica;html=1;fillColor=#dae8fc;strokeColor=#6c8ebf;" parent="1" vertex="1">
          <mxGeometry x="542" y="285" width="150" height="60" as="geometry"/>
        </mxCell>
        <mxCell id="LOOztYkBVy08BmpiCakV-60" value="" style="endArrow=block;dashed=1;endFill=0;endSize=12;html=1;entryX=0.5;entryY=1;entryDx=0;entryDy=0;exitX=0.5;exitY=0;exitDx=0;exitDy=0;" parent="1" source="LOOztYkBVy08BmpiCakV-55" target="LOOztYkBVy08BmpiCakV-54" edge="1">
          <mxGeometry width="160" relative="1" as="geometry">
            <mxPoint x="62" y="439" as="sourcePoint"/>
            <mxPoint x="222" y="439" as="targetPoint"/>
          </mxGeometry>
        </mxCell>
        <mxCell id="LOOztYkBVy08BmpiCakV-61" value="" style="endArrow=block;dashed=1;endFill=0;endSize=12;html=1;entryX=0.5;entryY=1;entryDx=0;entryDy=0;exitX=0.5;exitY=0;exitDx=0;exitDy=0;" parent="1" source="LOOztYkBVy08BmpiCakV-56" target="LOOztYkBVy08BmpiCakV-54" edge="1">
          <mxGeometry width="160" relative="1" as="geometry">
            <mxPoint x="12" y="119" as="sourcePoint"/>
            <mxPoint x="102" y="89" as="targetPoint"/>
          </mxGeometry>
        </mxCell>
        <mxCell id="LOOztYkBVy08BmpiCakV-62" value="" style="endArrow=block;dashed=1;endFill=0;endSize=12;html=1;exitX=0.5;exitY=0;exitDx=0;exitDy=0;" parent="1" source="LOOztYkBVy08BmpiCakV-59" edge="1">
          <mxGeometry width="160" relative="1" as="geometry">
            <mxPoint x="347" y="604" as="sourcePoint"/>
            <mxPoint x="527" y="214" as="targetPoint"/>
          </mxGeometry>
        </mxCell>
        <mxCell id="LOOztYkBVy08BmpiCakV-63" value="" style="endArrow=block;dashed=1;endFill=0;endSize=12;html=1;entryX=0.5;entryY=1;entryDx=0;entryDy=0;exitX=0.5;exitY=0;exitDx=0;exitDy=0;" parent="1" source="LOOztYkBVy08BmpiCakV-58" target="LOOztYkBVy08BmpiCakV-57" edge="1">
          <mxGeometry width="160" relative="1" as="geometry">
            <mxPoint x="397" y="454" as="sourcePoint"/>
            <mxPoint x="557" y="454" as="targetPoint"/>
          </mxGeometry>
        </mxCell>
        <mxCell id="LOOztYkBVy08BmpiCakV-64" value="" style="endArrow=open;endFill=1;endSize=12;html=1;exitX=1;exitY=0.5;exitDx=0;exitDy=0;entryX=0;entryY=0.5;entryDx=0;entryDy=0;" parent="1" source="LOOztYkBVy08BmpiCakV-54" target="LOOztYkBVy08BmpiCakV-57" edge="1">
          <mxGeometry width="160" relative="1" as="geometry">
            <mxPoint x="157" y="514" as="sourcePoint"/>
            <mxPoint x="317" y="514" as="targetPoint"/>
          </mxGeometry>
        </mxCell>
        <mxCell id="LOOztYkBVy08BmpiCakV-65" value="" style="endArrow=open;endFill=1;endSize=12;html=1;exitX=0.5;exitY=1;exitDx=0;exitDy=0;entryX=0.5;entryY=1;entryDx=0;entryDy=0;edgeStyle=orthogonalEdgeStyle;" parent="1" source="LOOztYkBVy08BmpiCakV-56" target="LOOztYkBVy08BmpiCakV-59" edge="1">
          <mxGeometry width="160" relative="1" as="geometry">
            <mxPoint x="194" y="678" as="sourcePoint"/>
            <mxPoint x="354" y="678" as="targetPoint"/>
            <Array as="points">
              <mxPoint x="179" y="384"/>
              <mxPoint x="617" y="384"/>
            </Array>
          </mxGeometry>
        </mxCell>
        <mxCell id="LOOztYkBVy08BmpiCakV-66" value="" style="endArrow=open;endFill=1;endSize=12;html=1;exitX=0.5;exitY=1;exitDx=0;exitDy=0;entryX=0.5;entryY=1;entryDx=0;entryDy=0;edgeStyle=orthogonalEdgeStyle;" parent="1" source="LOOztYkBVy08BmpiCakV-55" target="LOOztYkBVy08BmpiCakV-58" edge="1">
          <mxGeometry width="160" relative="1" as="geometry">
            <mxPoint x="14" y="618" as="sourcePoint"/>
            <mxPoint x="174" y="618" as="targetPoint"/>
            <Array as="points">
              <mxPoint x="-3" y="387"/>
              <mxPoint x="447" y="387"/>
            </Array>
          </mxGeometry>
        </mxCell>
        <mxCell id="LOOztYkBVy08BmpiCakV-67" value="" style="endArrow=classic;html=1;" parent="1" edge="1">
          <mxGeometry width="50" height="50" relative="1" as="geometry">
            <mxPoint x="264" y="1022" as="sourcePoint"/>
            <mxPoint x="524" y="1022" as="targetPoint"/>
          </mxGeometry>
        </mxCell>
        <mxCell id="LOOztYkBVy08BmpiCakV-68" value="" style="endArrow=classic;html=1;" parent="1" edge="1">
          <mxGeometry width="50" height="50" relative="1" as="geometry">
            <mxPoint x="264" y="1022" as="sourcePoint"/>
            <mxPoint x="264" y="792" as="targetPoint"/>
          </mxGeometry>
        </mxCell>
        <mxCell id="LOOztYkBVy08BmpiCakV-69" value="" style="ellipse;whiteSpace=wrap;html=1;aspect=fixed;fillColor=#d5e8d4;strokeColor=#82b366;" parent="1" vertex="1">
          <mxGeometry x="292" y="812" width="50" height="50" as="geometry"/>
        </mxCell>
        <mxCell id="LOOztYkBVy08BmpiCakV-70" value="" style="ellipse;whiteSpace=wrap;html=1;aspect=fixed;fillColor=#d5e8d4;strokeColor=#82b366;" parent="1" vertex="1">
          <mxGeometry x="292" y="882" width="50" height="50" as="geometry"/>
        </mxCell>
        <mxCell id="LOOztYkBVy08BmpiCakV-71" value="" style="ellipse;whiteSpace=wrap;html=1;aspect=fixed;fillColor=#d5e8d4;strokeColor=#82b366;" parent="1" vertex="1">
          <mxGeometry x="292" y="952" width="50" height="50" as="geometry"/>
        </mxCell>
        <mxCell id="LOOztYkBVy08BmpiCakV-72" value="" style="triangle;whiteSpace=wrap;html=1;rotation=-90;fillColor=#dae8fc;strokeColor=#6c8ebf;" parent="1" vertex="1">
          <mxGeometry x="372" y="812" width="50" height="50" as="geometry"/>
        </mxCell>
        <mxCell id="LOOztYkBVy08BmpiCakV-73" value="" style="triangle;whiteSpace=wrap;html=1;rotation=-90;fillColor=#dae8fc;strokeColor=#6c8ebf;" parent="1" vertex="1">
          <mxGeometry x="372" y="882" width="50" height="50" as="geometry"/>
        </mxCell>
        <mxCell id="LOOztYkBVy08BmpiCakV-74" value="" style="triangle;whiteSpace=wrap;html=1;rotation=-90;fillColor=#dae8fc;strokeColor=#6c8ebf;" parent="1" vertex="1">
          <mxGeometry x="372" y="952" width="50" height="50" as="geometry"/>
        </mxCell>
        <mxCell id="LOOztYkBVy08BmpiCakV-75" value="" style="whiteSpace=wrap;html=1;aspect=fixed;fillColor=#f8cecc;strokeColor=#b85450;" parent="1" vertex="1">
          <mxGeometry x="452" y="812" width="50" height="50" as="geometry"/>
        </mxCell>
        <mxCell id="LOOztYkBVy08BmpiCakV-76" value="" style="whiteSpace=wrap;html=1;aspect=fixed;fillColor=#f8cecc;strokeColor=#b85450;" parent="1" vertex="1">
          <mxGeometry x="452" y="882" width="50" height="50" as="geometry"/>
        </mxCell>
        <mxCell id="LOOztYkBVy08BmpiCakV-77" value="" style="whiteSpace=wrap;html=1;aspect=fixed;fillColor=#f8cecc;strokeColor=#b85450;" parent="1" vertex="1">
          <mxGeometry x="452" y="952" width="50" height="50" as="geometry"/>
        </mxCell>
        <mxCell id="LOOztYkBVy08BmpiCakV-78" value="&lt;font style=&quot;font-size: 22px&quot;&gt;美的&lt;/font&gt;" style="text;html=1;resizable=0;points=[];autosize=1;align=left;verticalAlign=top;spacingTop=-4;" parent="1" vertex="1">
          <mxGeometry x="202" y="827" width="60" height="20" as="geometry"/>
        </mxCell>
        <mxCell id="LOOztYkBVy08BmpiCakV-79" value="&lt;span style=&quot;font-size: 22px&quot;&gt;海尔&lt;/span&gt;" style="text;html=1;resizable=0;points=[];autosize=1;align=left;verticalAlign=top;spacingTop=-4;" parent="1" vertex="1">
          <mxGeometry x="202" y="897" width="60" height="20" as="geometry"/>
        </mxCell>
        <mxCell id="LOOztYkBVy08BmpiCakV-80" value="&lt;font style=&quot;font-size: 22px&quot;&gt;格力&lt;/font&gt;" style="text;html=1;resizable=0;points=[];autosize=1;align=left;verticalAlign=top;spacingTop=-4;" parent="1" vertex="1">
          <mxGeometry x="202" y="967" width="60" height="20" as="geometry"/>
        </mxCell>
        <mxCell id="LOOztYkBVy08BmpiCakV-81" value="&lt;font style=&quot;font-size: 22px&quot;&gt;洗衣机&lt;/font&gt;" style="text;html=1;resizable=0;points=[];autosize=1;align=left;verticalAlign=top;spacingTop=-4;" parent="1" vertex="1">
          <mxGeometry x="277" y="1032" width="80" height="20" as="geometry"/>
        </mxCell>
        <mxCell id="LOOztYkBVy08BmpiCakV-82" value="&lt;font style=&quot;font-size: 22px&quot;&gt;冰箱&lt;/font&gt;" style="text;html=1;resizable=0;points=[];autosize=1;align=left;verticalAlign=top;spacingTop=-4;" parent="1" vertex="1">
          <mxGeometry x="371" y="1032" width="60" height="20" as="geometry"/>
        </mxCell>
        <mxCell id="LOOztYkBVy08BmpiCakV-83" value="&lt;font style=&quot;font-size: 22px&quot;&gt;空调&lt;/font&gt;" style="text;html=1;resizable=0;points=[];autosize=1;align=left;verticalAlign=top;spacingTop=-4;" parent="1" vertex="1">
          <mxGeometry x="449" y="1032" width="60" height="20" as="geometry"/>
        </mxCell>
        <mxCell id="LOOztYkBVy08BmpiCakV-84" value="&lt;font style=&quot;font-size: 17px&quot;&gt;产品族&lt;/font&gt;" style="text;html=1;resizable=0;points=[];autosize=1;align=left;verticalAlign=top;spacingTop=-4;" parent="1" vertex="1">
          <mxGeometry x="222" y="762" width="70" height="20" as="geometry"/>
        </mxCell>
        <mxCell id="LOOztYkBVy08BmpiCakV-85" value="&lt;font style=&quot;font-size: 17px&quot;&gt;产品等级&lt;/font&gt;" style="text;html=1;resizable=0;points=[];autosize=1;align=left;verticalAlign=top;spacingTop=-4;" parent="1" vertex="1">
          <mxGeometry x="527" y="1012" width="80" height="20" as="geometry"/>
        </mxCell>
        <mxCell id="LOOztYkBVy08BmpiCakV-86" value="&lt;p style=&quot;margin: 0px ; margin-top: 4px ; text-align: center&quot;&gt;&lt;i&gt;&amp;lt;&amp;lt;Interface&amp;gt;&amp;gt;&lt;/i&gt;&lt;br&gt;&lt;b&gt;UserDao&lt;/b&gt;&lt;/p&gt;&lt;hr size=&quot;1&quot;&gt;&lt;p style=&quot;margin: 0px ; margin-left: 4px&quot;&gt;&lt;/p&gt;&lt;p style=&quot;margin: 0px ; margin-left: 4px&quot;&gt;+ saveUser(User): void&lt;br&gt;&lt;br&gt;&lt;/p&gt;" style="verticalAlign=top;align=left;overflow=fill;fontSize=12;fontFamily=Helvetica;html=1;fillColor=#dae8fc;strokeColor=#6c8ebf;" parent="1" vertex="1">
          <mxGeometry x="370" y="-100" width="150" height="60" as="geometry"/>
        </mxCell>
        <mxCell id="LOOztYkBVy08BmpiCakV-87" value="&lt;p style=&quot;margin: 0px ; margin-top: 4px ; text-align: center&quot;&gt;&lt;b&gt;SqlServerUserDao&lt;/b&gt;&lt;/p&gt;&lt;hr size=&quot;1&quot;&gt;&lt;p style=&quot;margin: 0px ; margin-left: 4px&quot;&gt;&lt;/p&gt;&lt;p style=&quot;margin: 0px ; margin-left: 4px&quot;&gt;+ saveUser(User): void&lt;br&gt;&lt;br&gt;&lt;/p&gt;" style="verticalAlign=top;align=left;overflow=fill;fontSize=12;fontFamily=Helvetica;html=1;fillColor=#dae8fc;strokeColor=#6c8ebf;" parent="1" vertex="1">
          <mxGeometry x="287" y="35" width="150" height="60" as="geometry"/>
        </mxCell>
        <mxCell id="LOOztYkBVy08BmpiCakV-88" value="&lt;p style=&quot;margin: 0px ; margin-top: 4px ; text-align: center&quot;&gt;&lt;b&gt;MysqlUserDao&lt;/b&gt;&lt;/p&gt;&lt;hr size=&quot;1&quot;&gt;&lt;p style=&quot;margin: 0px ; margin-left: 4px&quot;&gt;&lt;/p&gt;&lt;p style=&quot;margin: 0px ; margin-left: 4px&quot;&gt;+ saveUser(User): void&lt;br&gt;&lt;br&gt;&lt;/p&gt;" style="verticalAlign=top;align=left;overflow=fill;fontSize=12;fontFamily=Helvetica;html=1;fillColor=#dae8fc;strokeColor=#6c8ebf;" parent="1" vertex="1">
          <mxGeometry x="457" y="35" width="150" height="60" as="geometry"/>
        </mxCell>
        <mxCell id="LOOztYkBVy08BmpiCakV-89" value="" style="endArrow=block;dashed=1;endFill=0;endSize=12;html=1;exitX=0.5;exitY=0;exitDx=0;exitDy=0;" parent="1" source="LOOztYkBVy08BmpiCakV-88" edge="1">
          <mxGeometry width="160" relative="1" as="geometry">
            <mxPoint x="260" y="350" as="sourcePoint"/>
            <mxPoint x="440" y="-40" as="targetPoint"/>
          </mxGeometry>
        </mxCell>
        <mxCell id="LOOztYkBVy08BmpiCakV-90" value="" style="endArrow=block;dashed=1;endFill=0;endSize=12;html=1;entryX=0.5;entryY=1;entryDx=0;entryDy=0;exitX=0.5;exitY=0;exitDx=0;exitDy=0;" parent="1" source="LOOztYkBVy08BmpiCakV-87" target="LOOztYkBVy08BmpiCakV-86" edge="1">
          <mxGeometry width="160" relative="1" as="geometry">
            <mxPoint x="310" y="200" as="sourcePoint"/>
            <mxPoint x="470" y="200" as="targetPoint"/>
          </mxGeometry>
        </mxCell>
        <mxCell id="LOOztYkBVy08BmpiCakV-91" value="" style="endArrow=open;endFill=1;endSize=12;html=1;exitX=1;exitY=0.5;exitDx=0;exitDy=0;entryX=0;entryY=0.5;entryDx=0;entryDy=0;" parent="1" source="LOOztYkBVy08BmpiCakV-54" target="LOOztYkBVy08BmpiCakV-86" edge="1">
          <mxGeometry width="160" relative="1" as="geometry">
            <mxPoint x="191" y="67" as="sourcePoint"/>
            <mxPoint x="467" y="194" as="targetPoint"/>
          </mxGeometry>
        </mxCell>
        <mxCell id="LOOztYkBVy08BmpiCakV-92" value="" style="endArrow=open;endFill=1;endSize=12;html=1;exitX=0.25;exitY=1;exitDx=0;exitDy=0;entryX=0.25;entryY=1;entryDx=0;entryDy=0;edgeStyle=orthogonalEdgeStyle;" parent="1" source="LOOztYkBVy08BmpiCakV-55" edge="1">
          <mxGeometry width="160" relative="1" as="geometry">
            <mxPoint x="-46" y="260" as="sourcePoint"/>
            <mxPoint x="325" y="96" as="targetPoint"/>
            <Array as="points">
              <mxPoint x="-46" y="250"/>
              <mxPoint x="-46" y="386"/>
              <mxPoint x="325" y="386"/>
            </Array>
          </mxGeometry>
        </mxCell>
        <mxCell id="LOOztYkBVy08BmpiCakV-93" value="" style="endArrow=classic;html=1;entryX=1;entryY=0.5;entryDx=0;entryDy=0;edgeStyle=orthogonalEdgeStyle;exitX=0.25;exitY=1;exitDx=0;exitDy=0;" parent="1" source="LOOztYkBVy08BmpiCakV-56" target="LOOztYkBVy08BmpiCakV-88" edge="1">
          <mxGeometry width="50" height="50" relative="1" as="geometry">
            <mxPoint x="126" y="328" as="sourcePoint"/>
            <mxPoint x="850" y="384" as="targetPoint"/>
            <Array as="points">
              <mxPoint x="134" y="386"/>
              <mxPoint x="717" y="386"/>
              <mxPoint x="717" y="65"/>
            </Array>
          </mxGeometry>
        </mxCell>
        <mxCell id="LOOztYkBVy08BmpiCakV-94" value="&lt;p style=&quot;margin: 0px ; margin-top: 4px ; text-align: center&quot;&gt;&lt;i&gt;&amp;lt;&amp;lt;Interface&amp;gt;&amp;gt;&lt;/i&gt;&lt;br&gt;&lt;b&gt;UserDaoFactory&lt;/b&gt;&lt;/p&gt;&lt;hr size=&quot;1&quot;&gt;&lt;p style=&quot;margin: 0px ; margin-left: 4px&quot;&gt;&lt;/p&gt;&lt;p style=&quot;margin: 0px ; margin-left: 4px&quot;&gt;+ createUserDao(): UserDao&lt;br&gt;&lt;br&gt;&lt;/p&gt;" style="verticalAlign=top;align=left;overflow=fill;fontSize=12;fontFamily=Helvetica;html=1;fillColor=#dae8fc;strokeColor=#6c8ebf;" parent="1" vertex="1">
          <mxGeometry x="77" y="502" width="170" height="60" as="geometry"/>
        </mxCell>
        <mxCell id="LOOztYkBVy08BmpiCakV-95" value="&lt;p style=&quot;margin: 0px ; margin-top: 4px ; text-align: center&quot;&gt;&lt;b&gt;SqlServerUserDaoFactory&lt;/b&gt;&lt;/p&gt;&lt;hr size=&quot;1&quot;&gt;&lt;p style=&quot;margin: 0px ; margin-left: 4px&quot;&gt;&lt;/p&gt;&lt;p style=&quot;margin: 0px ; margin-left: 4px&quot;&gt;+ createUserDao(): UserDao&lt;br&gt;&lt;br&gt;&lt;/p&gt;" style="verticalAlign=top;align=left;overflow=fill;fontSize=12;fontFamily=Helvetica;html=1;fillColor=#dae8fc;strokeColor=#6c8ebf;" parent="1" vertex="1">
          <mxGeometry x="-8" y="592" width="160" height="60" as="geometry"/>
        </mxCell>
        <mxCell id="LOOztYkBVy08BmpiCakV-96" value="&lt;p style=&quot;margin: 0px ; margin-top: 4px ; text-align: center&quot;&gt;&lt;b&gt;MysqlUserDaoFactory&lt;/b&gt;&lt;/p&gt;&lt;hr size=&quot;1&quot;&gt;&lt;p style=&quot;margin: 0px ; margin-left: 4px&quot;&gt;&lt;/p&gt;&lt;p style=&quot;margin: 0px ; margin-left: 4px&quot;&gt;+ createUserDao(): UserDao&lt;br&gt;&lt;br&gt;&lt;/p&gt;" style="verticalAlign=top;align=left;overflow=fill;fontSize=12;fontFamily=Helvetica;html=1;fillColor=#dae8fc;strokeColor=#6c8ebf;" parent="1" vertex="1">
          <mxGeometry x="162" y="592" width="170" height="60" as="geometry"/>
        </mxCell>
        <mxCell id="LOOztYkBVy08BmpiCakV-97" value="&lt;p style=&quot;margin: 0px ; margin-top: 4px ; text-align: center&quot;&gt;&lt;i&gt;&amp;lt;&amp;lt;Interface&amp;gt;&amp;gt;&lt;/i&gt;&lt;br&gt;&lt;b&gt;UserDao&lt;/b&gt;&lt;/p&gt;&lt;hr size=&quot;1&quot;&gt;&lt;p style=&quot;margin: 0px ; margin-left: 4px&quot;&gt;&lt;/p&gt;&lt;p style=&quot;margin: 0px ; margin-left: 4px&quot;&gt;+ saveUser(User): void&lt;br&gt;&lt;br&gt;&lt;/p&gt;" style="verticalAlign=top;align=left;overflow=fill;fontSize=12;fontFamily=Helvetica;html=1;fillColor=#dae8fc;strokeColor=#6c8ebf;" parent="1" vertex="1">
          <mxGeometry x="452" y="502" width="150" height="60" as="geometry"/>
        </mxCell>
        <mxCell id="LOOztYkBVy08BmpiCakV-98" value="&lt;p style=&quot;margin: 0px ; margin-top: 4px ; text-align: center&quot;&gt;&lt;b&gt;SqlServerUserDao&lt;/b&gt;&lt;/p&gt;&lt;hr size=&quot;1&quot;&gt;&lt;p style=&quot;margin: 0px ; margin-left: 4px&quot;&gt;&lt;/p&gt;&lt;p style=&quot;margin: 0px ; margin-left: 4px&quot;&gt;+ saveUser(User): void&lt;br&gt;&lt;br&gt;&lt;/p&gt;" style="verticalAlign=top;align=left;overflow=fill;fontSize=12;fontFamily=Helvetica;html=1;fillColor=#dae8fc;strokeColor=#6c8ebf;" parent="1" vertex="1">
          <mxGeometry x="372" y="592" width="150" height="60" as="geometry"/>
        </mxCell>
        <mxCell id="LOOztYkBVy08BmpiCakV-99" value="&lt;p style=&quot;margin: 0px ; margin-top: 4px ; text-align: center&quot;&gt;&lt;b&gt;MysqlUserDao&lt;/b&gt;&lt;/p&gt;&lt;hr size=&quot;1&quot;&gt;&lt;p style=&quot;margin: 0px ; margin-left: 4px&quot;&gt;&lt;/p&gt;&lt;p style=&quot;margin: 0px ; margin-left: 4px&quot;&gt;+ saveUser(User): void&lt;br&gt;&lt;br&gt;&lt;/p&gt;" style="verticalAlign=top;align=left;overflow=fill;fontSize=12;fontFamily=Helvetica;html=1;fillColor=#dae8fc;strokeColor=#6c8ebf;" parent="1" vertex="1">
          <mxGeometry x="542" y="592" width="150" height="60" as="geometry"/>
        </mxCell>
        <mxCell id="LOOztYkBVy08BmpiCakV-100" value="" style="endArrow=block;dashed=1;endFill=0;endSize=12;html=1;entryX=0.5;entryY=1;entryDx=0;entryDy=0;exitX=0.5;exitY=0;exitDx=0;exitDy=0;" parent="1" source="LOOztYkBVy08BmpiCakV-95" target="LOOztYkBVy08BmpiCakV-94" edge="1">
          <mxGeometry width="160" relative="1" as="geometry">
            <mxPoint x="132" y="922" as="sourcePoint"/>
            <mxPoint x="292" y="922" as="targetPoint"/>
          </mxGeometry>
        </mxCell>
        <mxCell id="LOOztYkBVy08BmpiCakV-101" value="" style="endArrow=block;dashed=1;endFill=0;endSize=12;html=1;entryX=0.5;entryY=1;entryDx=0;entryDy=0;exitX=0.5;exitY=0;exitDx=0;exitDy=0;" parent="1" source="LOOztYkBVy08BmpiCakV-96" target="LOOztYkBVy08BmpiCakV-94" edge="1">
          <mxGeometry width="160" relative="1" as="geometry">
            <mxPoint x="82" y="602" as="sourcePoint"/>
            <mxPoint x="172" y="572" as="targetPoint"/>
          </mxGeometry>
        </mxCell>
        <mxCell id="LOOztYkBVy08BmpiCakV-102" value="" style="endArrow=block;dashed=1;endFill=0;endSize=12;html=1;exitX=0.5;exitY=0;exitDx=0;exitDy=0;" parent="1" source="LOOztYkBVy08BmpiCakV-99" edge="1">
          <mxGeometry width="160" relative="1" as="geometry">
            <mxPoint x="342" y="952" as="sourcePoint"/>
            <mxPoint x="522" y="562" as="targetPoint"/>
          </mxGeometry>
        </mxCell>
        <mxCell id="LOOztYkBVy08BmpiCakV-103" value="" style="endArrow=block;dashed=1;endFill=0;endSize=12;html=1;entryX=0.5;entryY=1;entryDx=0;entryDy=0;exitX=0.5;exitY=0;exitDx=0;exitDy=0;" parent="1" source="LOOztYkBVy08BmpiCakV-98" target="LOOztYkBVy08BmpiCakV-97" edge="1">
          <mxGeometry width="160" relative="1" as="geometry">
            <mxPoint x="392" y="802" as="sourcePoint"/>
            <mxPoint x="552" y="802" as="targetPoint"/>
          </mxGeometry>
        </mxCell>
        <mxCell id="LOOztYkBVy08BmpiCakV-104" value="" style="endArrow=open;endFill=1;endSize=12;html=1;exitX=1;exitY=0.5;exitDx=0;exitDy=0;entryX=0;entryY=0.5;entryDx=0;entryDy=0;" parent="1" source="LOOztYkBVy08BmpiCakV-94" target="LOOztYkBVy08BmpiCakV-97" edge="1">
          <mxGeometry width="160" relative="1" as="geometry">
            <mxPoint x="152" y="862" as="sourcePoint"/>
            <mxPoint x="312" y="862" as="targetPoint"/>
          </mxGeometry>
        </mxCell>
        <mxCell id="LOOztYkBVy08BmpiCakV-105" value="" style="endArrow=open;endFill=1;endSize=12;html=1;exitX=0.5;exitY=1;exitDx=0;exitDy=0;entryX=0.5;entryY=1;entryDx=0;entryDy=0;edgeStyle=orthogonalEdgeStyle;" parent="1" source="LOOztYkBVy08BmpiCakV-96" target="LOOztYkBVy08BmpiCakV-99" edge="1">
          <mxGeometry width="160" relative="1" as="geometry">
            <mxPoint x="192" y="952" as="sourcePoint"/>
            <mxPoint x="352" y="952" as="targetPoint"/>
            <Array as="points">
              <mxPoint x="247" y="682"/>
              <mxPoint x="617" y="682"/>
            </Array>
          </mxGeometry>
        </mxCell>
        <mxCell id="LOOztYkBVy08BmpiCakV-106" value="" style="endArrow=open;endFill=1;endSize=12;html=1;exitX=0.5;exitY=1;exitDx=0;exitDy=0;entryX=0.5;entryY=1;entryDx=0;entryDy=0;edgeStyle=orthogonalEdgeStyle;" parent="1" source="LOOztYkBVy08BmpiCakV-95" target="LOOztYkBVy08BmpiCakV-98" edge="1">
          <mxGeometry width="160" relative="1" as="geometry">
            <mxPoint x="12" y="892" as="sourcePoint"/>
            <mxPoint x="172" y="892" as="targetPoint"/>
            <Array as="points">
              <mxPoint x="72" y="682"/>
              <mxPoint x="447" y="682"/>
            </Array>
          </mxGeometry>
        </mxCell>
        <mxCell id="mWnUkNJoIV-4HcURaFzB-15" style="rounded=0;orthogonalLoop=1;jettySize=auto;html=1;exitX=1;exitY=0.5;exitDx=0;exitDy=0;exitPerimeter=0;entryX=0;entryY=0.75;entryDx=0;entryDy=0;" parent="1" source="mWnUkNJoIV-4HcURaFzB-2" target="mWnUkNJoIV-4HcURaFzB-7" edge="1">
          <mxGeometry relative="1" as="geometry"/>
        </mxCell>
        <mxCell id="mWnUkNJoIV-4HcURaFzB-16" style="edgeStyle=none;rounded=0;orthogonalLoop=1;jettySize=auto;html=1;exitX=1;exitY=0.5;exitDx=0;exitDy=0;exitPerimeter=0;entryX=0;entryY=0.75;entryDx=0;entryDy=0;" parent="1" source="mWnUkNJoIV-4HcURaFzB-2" target="mWnUkNJoIV-4HcURaFzB-3" edge="1">
          <mxGeometry relative="1" as="geometry"/>
        </mxCell>
        <mxCell id="mWnUkNJoIV-4HcURaFzB-2" value="" style="verticalLabelPosition=bottom;verticalAlign=top;html=1;shape=mxgraph.basic.smiley;fillColor=#dae8fc;strokeColor=#6c8ebf;" parent="1" vertex="1">
          <mxGeometry x="85" y="1327" width="41" height="41" as="geometry"/>
        </mxCell>
        <mxCell id="mWnUkNJoIV-4HcURaFzB-3" value="" style="shape=actor;whiteSpace=wrap;html=1;fillColor=#ffe6cc;strokeColor=#d79b00;" parent="1" vertex="1">
          <mxGeometry x="265" y="1288.5" width="25" height="42" as="geometry"/>
        </mxCell>
        <mxCell id="mWnUkNJoIV-4HcURaFzB-37" style="edgeStyle=none;rounded=0;orthogonalLoop=1;jettySize=auto;html=1;exitX=1;exitY=0.3333333333333333;exitDx=0;exitDy=0;exitPerimeter=0;entryX=0.1;entryY=0.5;entryDx=0;entryDy=0;entryPerimeter=0;" parent="1" source="mWnUkNJoIV-4HcURaFzB-4" target="mWnUkNJoIV-4HcURaFzB-22" edge="1">
          <mxGeometry relative="1" as="geometry"/>
        </mxCell>
        <mxCell id="mWnUkNJoIV-4HcURaFzB-38" style="edgeStyle=none;rounded=0;orthogonalLoop=1;jettySize=auto;html=1;" parent="1" target="mWnUkNJoIV-4HcURaFzB-26" edge="1">
          <mxGeometry relative="1" as="geometry">
            <mxPoint x="635" y="1361" as="sourcePoint"/>
          </mxGeometry>
        </mxCell>
        <mxCell id="mWnUkNJoIV-4HcURaFzB-39" style="edgeStyle=none;rounded=0;orthogonalLoop=1;jettySize=auto;html=1;exitX=1;exitY=0.3333333333333333;exitDx=0;exitDy=0;exitPerimeter=0;entryX=0;entryY=0.75;entryDx=0;entryDy=0;" parent="1" source="mWnUkNJoIV-4HcURaFzB-4" target="mWnUkNJoIV-4HcURaFzB-27" edge="1">
          <mxGeometry relative="1" as="geometry"/>
        </mxCell>
        <mxCell id="mWnUkNJoIV-4HcURaFzB-4" value="服务员" style="shape=umlActor;verticalLabelPosition=bottom;labelBackgroundColor=#ffffff;verticalAlign=top;html=1;outlineConnect=0;" parent="1" vertex="1">
          <mxGeometry x="613" y="1348" width="22" height="40" as="geometry"/>
        </mxCell>
        <mxCell id="mWnUkNJoIV-4HcURaFzB-17" style="edgeStyle=none;rounded=0;orthogonalLoop=1;jettySize=auto;html=1;exitX=1;exitY=0.5;exitDx=0;exitDy=0;exitPerimeter=0;entryX=0;entryY=0.75;entryDx=0;entryDy=0;" parent="1" source="mWnUkNJoIV-4HcURaFzB-5" target="mWnUkNJoIV-4HcURaFzB-6" edge="1">
          <mxGeometry relative="1" as="geometry"/>
        </mxCell>
        <mxCell id="mWnUkNJoIV-4HcURaFzB-18" style="edgeStyle=none;rounded=0;orthogonalLoop=1;jettySize=auto;html=1;exitX=1;exitY=0.5;exitDx=0;exitDy=0;exitPerimeter=0;entryX=0;entryY=0.75;entryDx=0;entryDy=0;" parent="1" source="mWnUkNJoIV-4HcURaFzB-5" target="mWnUkNJoIV-4HcURaFzB-3" edge="1">
          <mxGeometry relative="1" as="geometry"/>
        </mxCell>
        <mxCell id="mWnUkNJoIV-4HcURaFzB-5" value="" style="verticalLabelPosition=bottom;verticalAlign=top;html=1;shape=mxgraph.basic.smiley;fillColor=#d5e8d4;strokeColor=#82b366;" parent="1" vertex="1">
          <mxGeometry x="85" y="1383.5" width="41" height="41" as="geometry"/>
        </mxCell>
        <mxCell id="mWnUkNJoIV-4HcURaFzB-6" value="" style="shape=actor;whiteSpace=wrap;html=1;fillColor=#e1d5e7;strokeColor=#9673a6;" parent="1" vertex="1">
          <mxGeometry x="264.5" y="1346" width="25" height="42" as="geometry"/>
        </mxCell>
        <mxCell id="mWnUkNJoIV-4HcURaFzB-7" value="" style="shape=actor;whiteSpace=wrap;html=1;fillColor=#f8cecc;strokeColor=#b85450;" parent="1" vertex="1">
          <mxGeometry x="265" y="1403.5" width="25" height="42" as="geometry"/>
        </mxCell>
        <mxCell id="mWnUkNJoIV-4HcURaFzB-10" value="小蓝" style="text;html=1;resizable=0;points=[];autosize=1;align=left;verticalAlign=top;spacingTop=-4;" parent="1" vertex="1">
          <mxGeometry x="51" y="1340.5" width="34" height="14" as="geometry"/>
        </mxCell>
        <mxCell id="mWnUkNJoIV-4HcURaFzB-11" value="小绿" style="text;html=1;resizable=0;points=[];autosize=1;align=left;verticalAlign=top;spacingTop=-4;" parent="1" vertex="1">
          <mxGeometry x="51" y="1396.5" width="34" height="14" as="geometry"/>
        </mxCell>
        <mxCell id="mWnUkNJoIV-4HcURaFzB-12" value="粤菜大厨" style="text;html=1;resizable=0;points=[];autosize=1;align=left;verticalAlign=top;spacingTop=-4;" parent="1" vertex="1">
          <mxGeometry x="312" y="1302.5" width="58" height="14" as="geometry"/>
        </mxCell>
        <mxCell id="mWnUkNJoIV-4HcURaFzB-13" value="浙菜大厨" style="text;html=1;resizable=0;points=[];autosize=1;align=left;verticalAlign=top;spacingTop=-4;" parent="1" vertex="1">
          <mxGeometry x="313" y="1360" width="58" height="14" as="geometry"/>
        </mxCell>
        <mxCell id="mWnUkNJoIV-4HcURaFzB-14" value="川菜大厨" style="text;html=1;resizable=0;points=[];autosize=1;align=left;verticalAlign=top;spacingTop=-4;" parent="1" vertex="1">
          <mxGeometry x="317" y="1417.5" width="58" height="14" as="geometry"/>
        </mxCell>
        <mxCell id="mWnUkNJoIV-4HcURaFzB-33" style="edgeStyle=none;rounded=0;orthogonalLoop=1;jettySize=auto;html=1;exitX=1;exitY=0.5;exitDx=0;exitDy=0;exitPerimeter=0;" parent="1" source="mWnUkNJoIV-4HcURaFzB-21" target="mWnUkNJoIV-4HcURaFzB-4" edge="1">
          <mxGeometry relative="1" as="geometry"/>
        </mxCell>
        <mxCell id="mWnUkNJoIV-4HcURaFzB-21" value="" style="verticalLabelPosition=bottom;verticalAlign=top;html=1;shape=mxgraph.basic.smiley;fillColor=#dae8fc;strokeColor=#6c8ebf;" parent="1" vertex="1">
          <mxGeometry x="486" y="1327" width="41" height="41" as="geometry"/>
        </mxCell>
        <mxCell id="mWnUkNJoIV-4HcURaFzB-22" value="" style="shape=actor;whiteSpace=wrap;html=1;fillColor=#ffe6cc;strokeColor=#d79b00;" parent="1" vertex="1">
          <mxGeometry x="724" y="1289.5" width="25" height="42" as="geometry"/>
        </mxCell>
        <mxCell id="mWnUkNJoIV-4HcURaFzB-34" style="edgeStyle=none;rounded=0;orthogonalLoop=1;jettySize=auto;html=1;exitX=1;exitY=0.5;exitDx=0;exitDy=0;exitPerimeter=0;entryX=0;entryY=0.3333333333333333;entryDx=0;entryDy=0;entryPerimeter=0;" parent="1" source="mWnUkNJoIV-4HcURaFzB-25" target="mWnUkNJoIV-4HcURaFzB-4" edge="1">
          <mxGeometry relative="1" as="geometry"/>
        </mxCell>
        <mxCell id="mWnUkNJoIV-4HcURaFzB-25" value="" style="verticalLabelPosition=bottom;verticalAlign=top;html=1;shape=mxgraph.basic.smiley;fillColor=#d5e8d4;strokeColor=#82b366;" parent="1" vertex="1">
          <mxGeometry x="486" y="1383.5" width="41" height="41" as="geometry"/>
        </mxCell>
        <mxCell id="mWnUkNJoIV-4HcURaFzB-26" value="" style="shape=actor;whiteSpace=wrap;html=1;fillColor=#e1d5e7;strokeColor=#9673a6;" parent="1" vertex="1">
          <mxGeometry x="723.5" y="1347" width="25" height="42" as="geometry"/>
        </mxCell>
        <mxCell id="mWnUkNJoIV-4HcURaFzB-27" value="" style="shape=actor;whiteSpace=wrap;html=1;fillColor=#f8cecc;strokeColor=#b85450;" parent="1" vertex="1">
          <mxGeometry x="724" y="1404.5" width="25" height="42" as="geometry"/>
        </mxCell>
        <mxCell id="mWnUkNJoIV-4HcURaFzB-28" value="小蓝" style="text;html=1;resizable=0;points=[];autosize=1;align=left;verticalAlign=top;spacingTop=-4;" parent="1" vertex="1">
          <mxGeometry x="452" y="1340.5" width="34" height="14" as="geometry"/>
        </mxCell>
        <mxCell id="mWnUkNJoIV-4HcURaFzB-29" value="小绿" style="text;html=1;resizable=0;points=[];autosize=1;align=left;verticalAlign=top;spacingTop=-4;" parent="1" vertex="1">
          <mxGeometry x="452" y="1396.5" width="34" height="14" as="geometry"/>
        </mxCell>
        <mxCell id="mWnUkNJoIV-4HcURaFzB-30" value="粤菜大厨" style="text;html=1;resizable=0;points=[];autosize=1;align=left;verticalAlign=top;spacingTop=-4;" parent="1" vertex="1">
          <mxGeometry x="771" y="1303.5" width="58" height="14" as="geometry"/>
        </mxCell>
        <mxCell id="mWnUkNJoIV-4HcURaFzB-31" value="浙菜大厨" style="text;html=1;resizable=0;points=[];autosize=1;align=left;verticalAlign=top;spacingTop=-4;" parent="1" vertex="1">
          <mxGeometry x="772" y="1361" width="58" height="14" as="geometry"/>
        </mxCell>
        <mxCell id="mWnUkNJoIV-4HcURaFzB-32" value="川菜大厨" style="text;html=1;resizable=0;points=[];autosize=1;align=left;verticalAlign=top;spacingTop=-4;" parent="1" vertex="1">
          <mxGeometry x="776" y="1418.5" width="58" height="14" as="geometry"/>
        </mxCell>
        <mxCell id="mWnUkNJoIV-4HcURaFzB-35" value="粤菜、川菜" style="text;html=1;resizable=0;points=[];autosize=1;align=left;verticalAlign=top;spacingTop=-4;rotation=15;" parent="1" vertex="1">
          <mxGeometry x="536" y="1333.5" width="70" height="14" as="geometry"/>
        </mxCell>
        <mxCell id="mWnUkNJoIV-4HcURaFzB-36" value="粤菜、浙菜" style="text;html=1;resizable=0;points=[];autosize=1;align=left;verticalAlign=top;spacingTop=-4;rotation=-30;" parent="1" vertex="1">
          <mxGeometry x="532" y="1390.5" width="70" height="14" as="geometry"/>
        </mxCell>
        <mxCell id="mWnUkNJoIV-4HcURaFzB-40" value="2份" style="text;html=1;resizable=0;points=[];autosize=1;align=left;verticalAlign=top;spacingTop=-4;" parent="1" vertex="1">
          <mxGeometry x="657" y="1316.5" width="29" height="14" as="geometry"/>
        </mxCell>
        <mxCell id="mWnUkNJoIV-4HcURaFzB-41" value="1份" style="text;html=1;resizable=0;points=[];autosize=1;align=left;verticalAlign=top;spacingTop=-4;" parent="1" vertex="1">
          <mxGeometry x="671.5" y="1367" width="29" height="14" as="geometry"/>
        </mxCell>
        <mxCell id="mWnUkNJoIV-4HcURaFzB-42" value="1份" style="text;html=1;resizable=0;points=[];autosize=1;align=left;verticalAlign=top;spacingTop=-4;" parent="1" vertex="1">
          <mxGeometry x="666" y="1404.5" width="29" height="14" as="geometry"/>
        </mxCell>
        <mxCell id="Csd1nkc6_i79m0OoBTMn-1" value="图虽然看起来跟外观模式很像，但两者的区别还是很大的：" style="text;html=1;resizable=0;points=[];autosize=1;align=left;verticalAlign=top;spacingTop=-4;" vertex="1" parent="1">
          <mxGeometry x="325" y="1489" width="322" height="14" as="geometry"/>
        </mxCell>
        <mxCell id="Csd1nkc6_i79m0OoBTMn-3" value="粤菜、浙菜、川菜 都是一种命令，用户需要传各自想要的命令给服务员，然后服务员再通知对应的大厨去执行命令。&lt;br&gt;对服务员来说，只需接收命令和传递命令，无需关注命令被哪个大厨执行（命令本身关联着具体大厨，一旦命令触发，大厨就能收到）" style="text;html=1;resizable=0;points=[];autosize=1;align=left;verticalAlign=top;spacingTop=-4;" vertex="1" parent="1">
          <mxGeometry x="389" y="1522" width="718" height="28" as="geometry"/>
        </mxCell>
        <mxCell id="Csd1nkc6_i79m0OoBTMn-4" value="服务员（Facade）已事先让大厨做好各种菜（子系统），然后组合成各种套餐，如套餐一：粤菜、川菜，套餐二：粤菜浙菜。这样用户直接跟服务点套餐就可以了" style="text;html=1;resizable=0;points=[];autosize=1;align=left;verticalAlign=top;spacingTop=-4;" vertex="1" parent="1">
          <mxGeometry x="368" y="1563" width="866" height="14" as="geometry"/>
        </mxCell>
      </root>
    </mxGraphModel>
  </diagram>
</mxfile>
